<svg xmlns="http://www.w3.org/2000/svg" viewBox="0 0 48 32" fill="none">
  <rect width="48" height="32" rx="4" fill="#EB001B"/>
  <rect x="18" width="30" height="32" rx="4" fill="#F79E1B"/>
  <rect x="18" width="12" height="32" fill="#FF5F00"/>
  <path d="M24 22C26.5 20.5 28 17.5 28 14C28 10.5 26.5 7.5 24 6C21.5 7.5 20 10.5 20 14C20 17.5 21.5 20.5 24 22Z" fill="#EB001B"/>
  <path d="M24 22C26.5 20.5 28 17.5 28 14C28 10.5 26.5 7.5 24 6C26.5 7.5 28 10.5 28 14C28 17.5 26.5 20.5 24 22Z" fill="#F79E1B"/>
</svg>