<svg xmlns="http://www.w3.org/2000/svg" viewBox="0 0 48 32" fill="none">
  <rect width="48" height="32" rx="4" fill="#00457C"/>
  <path d="M19.3 9.2C19.2 9 19 8.9 18.8 8.9H13.2C13 8.9 12.9 9 12.8 9.2L10.4 22.3C10.4 22.5 10.5 22.6 10.7 22.6H13.3C13.5 22.6 13.6 22.5 13.7 22.3L14.3 19H16.8C19.7 19 21.3 17.4 21.7 14.7C22 12.3 20.7 10.5 19.3 9.8C19.3 9.6 19.3 9.4 19.3 9.2ZM16.2 16H15L15.6 12.7H17C18 12.7 18.5 13.2 18.4 14.1C18.2 15.5 17.4 16 16.2 16Z" fill="#0079BE"/>
  <path d="M30.8 9.2C30.7 9 30.5 8.9 30.3 8.9H24.7C24.5 8.9 24.4 9 24.3 9.2L21.9 22.3C21.9 22.5 22 22.6 22.2 22.6H24.5C24.7 22.6 24.8 22.5 24.9 22.3L25.5 19.5H27.5C31 19.5 33 17.7 33.5 14.5C33.9 11.9 32.3 10 30.8 9.5C30.8 9.4 30.8 9.3 30.8 9.2ZM28 16H26.5L27.1 12.7H28.5C29.5 12.7 30 13.2 29.9 14.1C29.7 15.5 28.9 16 28 16Z" fill="#00A4E0"/>
</svg>