<svg xmlns="http://www.w3.org/2000/svg" viewBox="0 0 48 32" fill="none">
  <rect width="48" height="32" rx="4" fill="#1A1F71"/>
  <path d="M20.5 21H17.5L19.5 11H22.5L20.5 21Z" fill="white"/>
  <path d="M31.5 11.5C30.9 11.3 29.9 11 28.7 11C25.8 11 23.7 12.5 23.7 14.6C23.7 16.1 25.2 16.9 26.3 17.4C27.5 17.9 27.9 18.2 27.9 18.7C27.9 19.4 27 19.8 26.2 19.8C24.9 19.8 24.2 19.6 23.1 19.1L22.7 18.9L22.2 21.6C23 22 24.4 22.3 25.9 22.3C29 22.3 31 20.8 31 18.5C31 17.2 30.2 16.2 28.4 15.4C27.3 14.9 26.7 14.5 26.7 14C26.7 13.5 27.3 13 28.5 13C29.5 13 30.2 13.2 30.8 13.4L31.1 13.6L31.5 11.5Z" fill="white"/>
  <path d="M35.6 11H33.3C32.6 11 32.1 11.2 31.8 11.9L27.4 21H30.5L31.1 19.5H34.9L35.3 21H38L35.6 11ZM32.1 17.3C32.3 16.8 33.2 14.3 33.2 14.3S33.4 13.8 33.5 13.4L33.7 14.2C33.7 14.2 34.3 16.7 34.4 17.3H32.1Z" fill="white"/>
  <path d="M15.5 11L12.6 18.1L12.3 16.5C11.8 14.9 10.2 13.2 8.4 12.3L11 21H14.1L18.6 11H15.5Z" fill="white"/>
  <path d="M10 11H5V11.2C8.9 12.2 11.4 14.5 12.3 16.5L11.4 11.9C11.2 11.2 10.7 11 10 11Z" fill="#F9A51A"/>
</svg>